<?xml version="1.0" standalone="no"?>
<!DOCTYPE svg PUBLIC "-//W3C//DTD SVG 20010904//EN"
 "http://www.w3.org/TR/2001/REC-SVG-20010904/DTD/svg10.dtd">
<svg version="1.0" xmlns="http://www.w3.org/2000/svg"
 width="260.000000pt" height="260.000000pt" viewBox="0 0 260.000000 260.000000"
 preserveAspectRatio="xMidYMid meet">
<metadata>
Created by potrace 1.11, written by Peter Selinger 2001-2013
</metadata>
<g transform="translate(0.000000,260.000000) scale(0.100000,-0.100000)"
fill="#000000" stroke="none">
<path d="M2469 2151 c-24 -16 -58 -42 -76 -58 -45 -40 -233 -282 -233 -300 0
-11 -201 -302 -228 -330 -11 -12 -35 -44 -53 -70 -18 -26 -50 -69 -71 -94 -21
-25 -38 -49 -38 -53 0 -9 -156 -202 -171 -212 -9 -5 -10 4 -4 32 17 92 24 177
25 304 0 132 -18 243 -61 382 -13 41 -35 53 -119 64 -59 8 -96 0 -104 -22 -3
-9 6 -59 21 -112 26 -94 27 -104 26 -347 0 -176 -5 -287 -17 -374 -23 -164
-25 -263 -7 -284 29 -35 64 -21 132 53 202 218 279 305 279 314 0 4 42 54 93
112 50 58 94 111 96 117 2 7 29 42 60 79 68 82 130 162 154 201 10 16 53 73
95 126 42 53 82 103 87 112 6 9 45 61 88 115 42 55 86 117 97 139 12 22 30 55
42 74 21 33 21 34 3 47 -29 22 -67 17 -116 -15z"/>
<path d="M1169 2032 c-194 -205 -577 -647 -639 -736 -38 -55 -81 -111 -238
-304 -141 -175 -243 -314 -277 -381 -17 -33 -17 -35 1 -48 10 -7 31 -13 46
-13 94 0 219 134 488 520 78 113 150 212 159 220 9 8 32 37 50 64 43 63 277
353 292 362 9 5 10 -4 4 -32 -32 -167 -34 -409 -5 -534 32 -137 59 -198 94
-210 42 -15 130 -24 159 -16 37 9 39 30 12 129 -53 198 -57 384 -15 700 26
199 30 308 11 330 -7 10 -28 17 -46 17 -26 0 -43 -11 -96 -68z"/>
</g>
</svg>
